<svg width="25" height="24" viewBox="0 0 25 24" fill="none" xmlns="http://www.w3.org/2000/svg">
<path d="M4.66675 6H2.66675V20C2.66675 21.11 3.56675 22 4.66675 22H18.6667V20H4.66675V6ZM19.1667 14.25C19.1667 12.75 16.1667 12 14.6667 12C13.1667 12 10.1667 12.75 10.1667 14.25V15H19.1667M14.6667 10.25C15.9067 10.25 16.9167 9.24 16.9167 8C16.9167 6.76 15.9067 5.75 14.6667 5.75C13.4267 5.75 12.4167 6.76 12.4167 8C12.4167 9.24 13.4267 10.25 14.6667 10.25ZM20.6667 2H8.66675C7.56675 2 6.66675 2.9 6.66675 4V16C6.66675 17.11 7.56675 18 8.66675 18H20.6667C21.7767 18 22.6667 17.11 22.6667 16V4C22.6667 2.89 21.7667 2 20.6667 2ZM20.6667 16H8.66675V4H20.6667V16Z" fill="#B7C4FF"/>
</svg>
